<svg xmlns="http://www.w3.org/2000/svg" width="76" height="45" fill="none" viewBox="0 0 76 45"><path fill="url(#paint0_linear_1_57)" d="M6.43791 6.99083C4.73374 7.28833 3.10874 7.54083 1.58791 7.74417C-4.12376 26.9558 7.40957 33.8142 7.40957 33.8142C3.52291 27.91 5.04457 12.0967 6.43791 6.99083Z"/><path fill="url(#paint1_linear_1_57)" d="M15.5229 9.8675C15.5229 9.8675 -0.0970983 28.9258 25.4279 35.0858C25.4279 35.0858 5.59873 23.4075 23.6212 6.1325C25.5454 4.28833 29.0912 4.94583 31.1387 0C27.4954 1.44833 17.5804 4.69 11.4171 6.01333C10.3679 6.23667 9.33207 6.44833 8.32207 6.6425C8.32207 6.6425 7.59623 8.5975 7.24457 11.33C7.24457 11.33 11.0671 12.0492 15.5229 9.8675Z"/><path fill="url(#paint2_linear_1_57)" d="M54.5313 20.0542L51.6354 17.855L49.4362 20.75L52.3312 22.95L54.5313 20.0542Z"/><path fill="url(#paint3_linear_1_57)" d="M60.2996 13.36C60.2996 13.36 71.2312 38.6283 38.0887 39.1642C10.9879 39.6025 8.04041 24.725 8.04041 24.725C8.04041 24.725 6.02125 43.1567 35.2629 44.5983C66.1287 46.12 65.6062 25.0967 65.6062 25.0967L68.6662 24.9192C69.7354 23.045 70.5304 21.4658 71.3421 19.7175L65.4054 20.6575C65.4054 20.6575 65.1787 18.6575 66.4804 16.6517C67.8579 14.52 71.2537 14.5733 73.5237 14.5042C74.6871 11.4225 75.2846 9.25333 75.3662 8.95167L60.2996 13.36Z"/><path fill="url(#paint4_linear_1_57)" d="M25.4979 23.1742C25.4979 23.1742 22.0054 13.6608 31.1004 5.8425C31.1004 5.8425 24.8996 7.60667 21.4354 12.9892C17.7637 18.6942 19.4379 27.3375 25.6987 32.9283C39.5871 45.3317 47.6554 19.5617 31.8904 21.2625C31.8904 21.2625 31.5762 13.38 43.5379 10.3692C43.5379 10.3692 41.1062 9.2925 36.7771 10.0483C25.8587 11.955 25.4979 23.1742 25.4979 23.1742ZM33.7512 25.6592C35.5437 25.6508 37.0096 27.1025 37.0179 28.895C37.0262 30.6933 35.5746 32.1533 33.7821 32.1617C31.9837 32.17 30.5237 30.7242 30.5154 28.9258C30.5071 27.1333 31.9529 25.6675 33.7512 25.6592Z"/><path fill="url(#paint5_linear_1_57)" d="M49.4612 9.68667C49.4612 9.68667 45.8646 11.5617 43.8746 14.5292C40.4671 19.6108 40.5471 28.3508 46.5946 32.1617C51.0321 34.9575 56.6629 31.4358 58.2121 27.79C60.7221 21.8833 57.6187 18.5125 57.6187 18.5125C57.6187 18.5125 57.5296 29.5867 49.7621 27.2083C45.7521 25.98 43.0846 16.2642 57.9304 10.6508L59.6962 7.09833C59.6962 7.09833 43.7604 2.0825 37.0171 8.42917C37.0179 8.42917 41.9954 6.9175 49.4612 9.68667Z"/><defs><linearGradient id="paint0_linear_1_57" x1="10.725" x2="59.469" y1="18.551" y2="1.107" gradientUnits="userSpaceOnUse"><stop stop-color="#526CBB"/><stop offset="1" stop-color="#511989"/></linearGradient><linearGradient id="paint1_linear_1_57" x1="12.157" x2="60.901" y1="22.553" y2="5.109" gradientUnits="userSpaceOnUse"><stop stop-color="#526CBB"/><stop offset="1" stop-color="#511989"/></linearGradient><linearGradient id="paint2_linear_1_57" x1="15.996" x2="64.74" y1="33.281" y2="15.837" gradientUnits="userSpaceOnUse"><stop stop-color="#526CBB"/><stop offset="1" stop-color="#511989"/></linearGradient><linearGradient id="paint3_linear_1_57" x1="18.265" x2="65.276" y1="37.864" y2="21.04" gradientUnits="userSpaceOnUse"><stop stop-color="#526CBB"/><stop offset="1" stop-color="#511989"/></linearGradient><linearGradient id="paint4_linear_1_57" x1="14.014" x2="62.758" y1="27.743" y2="10.299" gradientUnits="userSpaceOnUse"><stop stop-color="#526CBB"/><stop offset="1" stop-color="#511989"/></linearGradient><linearGradient id="paint5_linear_1_57" x1="15.102" x2="63.846" y1="30.784" y2="13.34" gradientUnits="userSpaceOnUse"><stop stop-color="#526CBB"/><stop offset="1" stop-color="#511989"/></linearGradient></defs></svg>